<?xml version="1.0" encoding="UTF-8" standalone="no"?>
<svg
   xmlns:dc="http://purl.org/dc/elements/1.1/"
   xmlns:cc="http://creativecommons.org/ns#"
   xmlns:rdf="http://www.w3.org/1999/02/22-rdf-syntax-ns#"
   xmlns:svg="http://www.w3.org/2000/svg"
   xmlns="http://www.w3.org/2000/svg"
   viewBox="0 0 793.70001 1122.52"
   height="1122.52"
   width="793.70001"
   xml:space="preserve"
   id="svg2"
   version="1.1"><metadata
     id="metadata8"><rdf:RDF><cc:Work
         rdf:about=""><dc:format>image/svg+xml</dc:format><dc:type
           rdf:resource="http://purl.org/dc/dcmitype/StillImage" /></cc:Work></rdf:RDF></metadata><defs
     id="defs6"><clipPath
       id="clipPath18"
       clipPathUnits="userSpaceOnUse"><path
         id="path16"
         d="M 0,841.89 H 595.275 V 0 H 0 Z" /></clipPath></defs><g
     transform="matrix(1.3333333,0,0,-1.3333333,0,1122.52)"
     id="g10"><g
       id="g12"><g
         clip-path="url(#clipPath18)"
         id="g14"><g
           transform="translate(220.5215,698.6938)"
           id="g20"><path
             id="path22"
             style="fill:#007dc3;fill-opacity:1;fill-rule:nonzero;stroke:none"
             d="m 0,0 c 0.111,9.688 -4.336,14.711 -11.209,14.711 -8.176,0 -12.374,-5.262 -12.374,-16.233 V -9.808 L 0,-10.155 V 0" /></g><g
           transform="translate(473.6338,635.7153)"
           id="g24"><path
             id="path26"
             style="fill:#007dc3;fill-opacity:1;fill-rule:nonzero;stroke:none"
             d="m 0,0 0.348,23.565 h 8.285 c 10.972,0 16.216,-4.198 16.216,-12.373 C 24.849,4.318 19.844,-0.118 10.147,0 H 0" /></g><g
           transform="translate(496.3467,688.1714)"
           id="g28"><path
             id="path30"
             style="fill:#007dc3;fill-opacity:1;fill-rule:nonzero;stroke:none"
             d="m 0,0 c 0.943,-1.586 1.447,-3.511 1.447,-5.773 0,-8.177 -7.13,-11.679 -14.948,-11.679 h -8.754 L -22.136,4.601 0,0" /></g><g
           transform="translate(163.9785,689.1245)"
           id="g32"><path
             id="path34"
             style="fill:#007dc3;fill-opacity:1;fill-rule:nonzero;stroke:none"
             d="m 0,0 21.521,-0.119 v 8.744 c 0,7.818 -3.501,14.949 -11.668,14.949 -1.944,0 -3.638,-0.366 -5.087,-1.072 L 0,0" /></g><g
           transform="translate(52.5688,163.7705)"
           id="g36"><path
             id="path38"
             style="fill:#ef3e42;fill-opacity:1;fill-rule:nonzero;stroke:none"
             d="M 0,0 H 381.183 L 364.42,-77.595 Z" /></g><g
           transform="translate(151.1826,460.4121)"
           id="g40"><path
             id="path42"
             style="fill:#007dc3;fill-opacity:1;fill-rule:nonzero;stroke:none"
             d="m 0,0 v 15.289 l 64.545,19.605 v 0.23 L 0,57.542 v 15.28 L 80.769,84.728 82.399,69.55 18.681,63.491 V 63.252 L 80.769,42.721 V 27.304 L 18.681,8.754 V 8.516 L 82.399,0.119 80.769,-14.234 0,0 m 0,102.923 v 14.939 l 80.769,-0.706 V 102.217 L 0,102.923 m 147.185,76.927 c 3.729,-2.566 9.805,-5.491 14.233,-5.491 8.286,0 12.953,5.262 12.953,11.678 -0.111,16.104 -33.146,9.221 -33.146,36.764 0,13.189 10.744,23.455 26.958,23.455 8.054,0 15.885,-2.796 22.767,-6.766 l -6.306,-10.732 c -4.894,2.677 -9.458,5.362 -15.288,5.362 -6.774,0 -13.181,-3.62 -13.181,-10.861 0,-15.865 33.841,-10.844 33.841,-36.635 0,-13.768 -11.091,-24.399 -26.728,-24.399 -7.818,0 -15.17,2.217 -21.941,6.187 l 5.838,11.438 m 73.179,51.933 h -22.649 l 0.119,12.841 h 59.871 l -0.11,-12.841 h -22.29 l -0.597,-67.918 h -14.932 l 0.588,67.918 M 20.925,266.539 c 10.973,0 17.828,-6.206 18.762,-14.143 h 0.23 c 1.522,9.808 9.111,15.527 18.909,15.527 13.42,0 21.943,-10.275 21.943,-25.563 V 212.947 L 9.533,213.68 6.92,200.519 80.769,171.17 v -14.005 l -77.616,-28.818 -4.784,15.05 63.491,20.652 v 0.237 L 3.739,185.67 -98.614,-296.642 h 381.183 l 108.955,514.502 -30.697,6.562 c 0,-10.971 -6.167,-18.541 -14.106,-19.476 v -0.239 c 9.807,-1.521 15.53,-9.102 15.53,-18.9 0,-13.427 -10.276,-21.942 -25.565,-21.942 h -29.413 l 0.817,71.758 -23.899,5.051 -0.704,-76.809 h -14.94 l 0.769,79.888 -242.415,51.549 -5.976,-28.763" /></g></g></g></g></svg>